<?xml version="1.0" standalone="no"?>
<!DOCTYPE svg PUBLIC "-//W3C//DTD SVG 20010904//EN"
 "http://www.w3.org/TR/2001/REC-SVG-20010904/DTD/svg10.dtd">
<svg version="1.0" xmlns="http://www.w3.org/2000/svg"
 width="260.000000pt" height="260.000000pt" viewBox="0 0 260.000000 260.000000"
 preserveAspectRatio="xMidYMid meet">
<metadata>
Created by potrace 1.11, written by Peter Selinger 2001-2013
</metadata>
<g transform="translate(0.000000,260.000000) scale(0.100000,-0.100000)"
fill="#000000" stroke="none">
<path d="M1240 2437 c-3 -3 -48 -11 -100 -18 -52 -6 -99 -15 -105 -19 -5 -4
-29 -11 -52 -15 -24 -4 -43 -11 -43 -16 0 -5 -8 -9 -17 -9 -10 -1 -36 -9 -58
-20 -22 -11 -43 -19 -47 -20 -11 0 -161 -91 -203 -123 -54 -41 -180 -171 -202
-207 -9 -17 -21 -30 -24 -30 -19 0 -126 -199 -141 -260 -6 -25 -14 -49 -18
-55 -28 -37 -64 -248 -64 -370 0 -124 28 -287 64 -370 5 -11 14 -39 20 -61 15
-61 91 -197 145 -261 6 -6 21 -26 35 -45 39 -52 162 -170 211 -202 24 -16 56
-37 71 -48 15 -10 32 -18 38 -18 5 0 10 -4 10 -9 0 -5 14 -12 30 -16 16 -4 30
-10 30 -13 0 -4 24 -16 52 -26 29 -10 67 -24 83 -31 35 -16 107 -33 185 -45
72 -11 292 -11 355 0 100 17 155 31 182 45 15 8 33 15 39 15 34 0 273 135 324
182 14 13 37 32 51 44 23 17 42 39 122 134 40 47 107 146 107 157 0 7 4 13 9
13 4 0 14 20 21 45 7 25 16 45 20 45 4 0 11 16 15 36 3 20 10 44 15 53 40 77
65 223 65 376 0 161 -23 288 -72 405 -62 149 -91 206 -139 269 -52 69 -214
236 -253 261 -13 8 -34 23 -46 33 -13 9 -26 17 -30 17 -4 0 -29 13 -54 28 -25
15 -71 38 -101 51 -30 12 -64 26 -75 31 -47 20 -126 40 -200 50 -101 14 -248
24 -255 17z m17 -697 c3 -16 10 -30 15 -30 5 0 8 6 5 13 -8 23 13 47 43 47 32
0 147 -36 168 -53 8 -6 11 -19 7 -31 -3 -12 -8 -30 -11 -41 -3 -11 -9 -78 -14
-150 -10 -149 -26 -286 -39 -330 -5 -16 -12 -61 -16 -100 -10 -95 3 -82 98
107 95 188 106 203 149 194 56 -11 58 -17 58 -160 0 -136 7 -206 20 -206 5 0
18 33 30 73 13 39 26 76 31 82 5 5 9 16 9 25 0 8 7 28 15 44 8 15 15 33 15 38
0 6 6 24 14 41 13 31 66 235 88 345 l11 52 64 0 c91 0 163 -34 134 -63 -6 -6
-11 -30 -11 -53 0 -62 -6 -71 -44 -66 -29 3 -35 0 -49 -31 -10 -19 -17 -42
-17 -50 0 -9 -4 -18 -9 -22 -5 -3 -13 -20 -17 -37 -3 -18 -10 -39 -15 -48 -21
-40 -39 -84 -39 -96 0 -7 -6 -33 -14 -56 -7 -24 -23 -86 -35 -138 -38 -168
-59 -227 -84 -234 -33 -9 -145 -7 -151 2 -12 21 -36 163 -36 219 0 63 -6 93
-20 93 -4 0 -11 -12 -15 -27 -3 -15 -10 -30 -13 -33 -4 -3 -25 -41 -47 -85
-22 -44 -46 -86 -52 -93 -7 -7 -13 -22 -13 -33 0 -14 -5 -19 -17 -17 -10 2
-17 11 -17 21 1 9 -2 17 -7 17 -5 0 -14 11 -19 25 -5 14 -14 25 -20 25 -13 0
-13 -17 -1 -22 5 -2 12 -26 16 -55 7 -63 0 -67 -95 -76 -36 -3 -78 -9 -95 -12
-52 -11 -53 -8 -85 315 -6 58 -12 110 -14 116 -3 7 -22 8 -58 3 -29 -4 -97 -8
-151 -8 l-99 -1 7 -137 c3 -76 10 -156 15 -178 20 -91 20 -115 -2 -137 -19
-19 -29 -20 -103 -16 -107 7 -125 19 -125 80 l0 47 48 3 47 3 -3 100 c-4 103
-11 178 -39 395 -8 69 -18 154 -22 190 l-6 65 -68 0 c-49 0 -70 4 -77 15 -26
40 2 59 104 72 177 22 166 22 166 1 0 -10 -5 -24 -11 -30 -9 -9 -9 -26 0 -70
6 -32 16 -94 22 -138 6 -44 13 -94 16 -111 l5 -32 146 5 c81 3 151 6 156 7 21
5 -9 271 -33 300 -21 25 -40 100 -30 117 11 21 73 34 182 38 45 1 48 0 54 -29z"/>
<path d="M1422 1688 c3 -7 15 -15 28 -16 21 -3 22 -2 11 12 -16 19 -44 21 -39
4z"/>
<path d="M1197 1663 l-48 -16 7 -41 c3 -23 11 -47 16 -53 6 -7 14 -62 18 -123
5 -61 13 -125 19 -143 10 -31 27 -173 38 -304 4 -60 6 -63 31 -63 27 0 27 0
28 78 0 42 5 190 10 327 5 138 8 255 6 262 -2 6 -18 13 -35 15 -30 3 -32 5
-30 41 3 42 5 41 -60 20z"/>
<path d="M1403 1495 c0 -33 2 -45 4 -27 2 18 2 45 0 60 -2 15 -4 0 -4 -33z"/>
<path d="M1691 1244 c0 -11 3 -14 6 -6 3 7 2 16 -1 19 -3 4 -6 -2 -5 -13z"/>
<path d="M1450 930 c0 -5 5 -10 10 -10 6 0 10 5 10 10 0 6 -4 10 -10 10 -5 0
-10 -4 -10 -10z"/>
<path d="M1700 880 c0 -5 5 -10 10 -10 6 0 10 5 10 10 0 6 -4 10 -10 10 -5 0
-10 -4 -10 -10z"/>
</g>
</svg>
